<?xml version="1.0" encoding="utf-8"?>
<!-- Generator: Adobe Illustrator 19.2.0, SVG Export Plug-In . SVG Version: 6.00 Build 0)  -->
<svg version="1.1" id="Layer_1" xmlns="http://www.w3.org/2000/svg" xmlns:xlink="http://www.w3.org/1999/xlink" x="0px" y="0px"
	 width="16px" height="16px" viewBox="0 0 16 16" style="enable-background:new 0 0 16 16;" xml:space="preserve">
<style type="text/css">
	.st0{fill:#1D1D1B;}
</style>
<g>
	<path class="st0" d="M4.7,12.6c-0.9,0-1.6,0.7-1.6,1.6c0,0.9,0.7,1.6,1.6,1.6s1.6-0.7,1.6-1.6C6.3,13.3,5.6,12.6,4.7,12.6z M0,0
		v1.6h1.6l2.9,5.8l-1.2,2c-0.1,0.2-0.2,0.5-0.2,0.8c0,1.1,0.7,1.6,1.7,1.6h9.4v-1.5H5c-0.1,0-0.2-0.1-0.2-0.2l0.1-0.2l0.8-1.3h6
		c0.6,0,1.1-0.3,1.4-0.8l2.9-5c0-0.1,0-0.3,0-0.4c0-0.4-0.4-0.8-0.8-0.8H3.4L2.6,0H0z M12.6,12.6c-0.9,0-1.6,0.7-1.6,1.6
		c0,0.9,0.7,1.6,1.6,1.6c0.9,0,1.6-0.7,1.6-1.6C14.2,13.3,13.4,12.6,12.6,12.6z"/>
</g>
</svg>
